<svg width="215" height="56" viewBox="0 0 215 56" fill="none" xmlns="http://www.w3.org/2000/svg">
<g filter="url(#filter0_d_1898_146)">
<path d="M17.3035 48.8046C10.9448 47.4509 4.91744 37.3285 2.32833 26.9916C-0.402681 16.0881 6.82276 5.72088 17.8899 3.75573C23.1865 2.81524 28.2163 2.65166 31.2875 2.79694C84.6814 2.19554 193.758 1.3536 202.911 2.79697C210.354 3.97076 212.137 23.9174 207.302 39.252C205.317 45.5465 198.983 48.8683 192.384 48.9652C132.663 49.8423 26.8809 50.8434 17.3035 48.8046Z" fill="#9C9AD9"/>
<path d="M1.60081 27.1738C2.91271 32.4115 5.09748 37.6065 7.7757 41.6789C10.4316 45.7174 13.6706 48.798 17.1473 49.5381C18.4186 49.8087 21.1874 50.0169 25.095 50.1821C29.0308 50.3486 34.1897 50.4734 40.291 50.5631C52.4946 50.7423 68.4867 50.7809 86.0421 50.7283C121.154 50.6233 162.533 50.1537 192.395 49.7152C199.2 49.6152 205.904 46.1793 208.017 39.4775C210.466 31.7106 211.239 22.7857 210.456 15.6326C210.065 12.0589 209.281 8.87976 208.088 6.4962C206.902 4.12643 205.236 2.40439 203.028 2.05613C201.826 1.86662 199.067 1.72169 195.12 1.60821C191.15 1.49406 185.924 1.41084 179.749 1.3535C167.397 1.23882 151.232 1.22755 133.687 1.28017C98.6066 1.38539 57.9994 1.74608 31.3009 2.04674C28.1756 1.90081 23.101 2.06868 17.7588 3.01728C6.29427 5.05298 -1.24328 15.8189 1.60081 27.1738Z" stroke="#010101" stroke-width="1.5"/>
</g>
<defs>
<filter id="filter0_d_1898_146" x="0.247803" y="0.5" width="214.252" height="55" filterUnits="userSpaceOnUse" color-interpolation-filters="sRGB">
<feFlood flood-opacity="0" result="BackgroundImageFix"/>
<feColorMatrix in="SourceAlpha" type="matrix" values="0 0 0 0 0 0 0 0 0 0 0 0 0 0 0 0 0 0 127 0" result="hardAlpha"/>
<feOffset dx="3" dy="4"/>
<feComposite in2="hardAlpha" operator="out"/>
<feColorMatrix type="matrix" values="0 0 0 0 0.00392157 0 0 0 0 0.00392157 0 0 0 0 0.00392157 0 0 0 1 0"/>
<feBlend mode="normal" in2="BackgroundImageFix" result="effect1_dropShadow_1898_146"/>
<feBlend mode="normal" in="SourceGraphic" in2="effect1_dropShadow_1898_146" result="shape"/>
</filter>
</defs>
</svg>
