<svg width="188" height="52" viewBox="0 0 188 52" fill="none" xmlns="http://www.w3.org/2000/svg">
<path d="M7.01065 51.6832C5.27628 51.6832 3.78717 51.0701 2.54332 49.8438C1.317 48.5999 0.703835 47.1108 0.703835 45.3764C0.703835 43.6596 1.317 42.188 2.54332 40.9616C3.78717 39.7353 5.27628 39.1222 7.01065 39.1222C8.69247 39.1222 10.1641 39.7353 11.4254 40.9616C12.6868 42.188 13.3175 43.6596 13.3175 45.3764C13.3175 46.5327 13.0197 47.5926 12.424 48.5561C11.8459 49.5021 11.0838 50.2642 10.1378 50.8423C9.19176 51.4029 8.14938 51.6832 7.01065 51.6832ZM14.3683 51V10.6364H25.0374V17.7578H25.5104C26.3513 15.3928 27.7528 13.527 29.7149 12.1605C31.6771 10.794 34.0246 10.1108 36.7576 10.1108C39.5255 10.1108 41.8818 10.8028 43.8264 12.1868C45.771 13.5533 47.0674 15.4103 47.7156 17.7578H48.1361C48.9595 15.4453 50.4486 13.5971 52.6034 12.2131C54.7758 10.8116 57.3423 10.1108 60.303 10.1108C64.0696 10.1108 67.1266 11.3108 69.4742 13.7109C71.8392 16.0935 73.0218 19.4747 73.0218 23.8544V51H61.8534V26.0618C61.8534 23.8194 61.2578 22.1375 60.0665 21.0163C58.8752 19.8951 57.3861 19.3345 55.5992 19.3345C53.567 19.3345 51.9815 19.9827 50.8428 21.2791C49.704 22.558 49.1347 24.2486 49.1347 26.3509V51H38.2817V25.8253C38.2817 23.8456 37.7123 22.2689 36.5736 21.0952C35.4524 19.9214 33.972 19.3345 32.1326 19.3345C30.8887 19.3345 29.7675 19.6499 28.7689 20.2805C27.7879 20.8937 27.0083 21.7609 26.4301 22.8821C25.852 23.9858 25.5629 25.2822 25.5629 26.7713V51H14.3683ZM85.2344 51.7621C82.6591 51.7621 80.3641 51.3153 78.3494 50.4219C76.3348 49.5109 74.7405 48.1707 73.5668 46.4013C72.4105 44.6143 71.8324 42.3894 71.8324 39.7266C71.8324 37.4841 72.2441 35.6009 73.0675 34.0767C73.8909 32.5526 75.0121 31.3262 76.4311 30.3977C77.8502 29.4692 79.4619 28.7685 81.2663 28.2955C83.0883 27.8224 84.9979 27.4896 86.995 27.2969C89.3426 27.0516 91.2346 26.8239 92.6712 26.6136C94.1077 26.3859 95.1501 26.053 95.7983 25.6151C96.4465 25.1771 96.7706 24.5289 96.7706 23.6705V23.5128C96.7706 21.8485 96.245 20.5608 95.1939 19.6499C94.1603 18.7389 92.6887 18.2834 90.7791 18.2834C88.7644 18.2834 87.1615 18.7301 85.9702 19.6236C84.7789 20.4995 83.9905 21.6032 83.6051 22.9347L73.2514 22.0938C73.777 19.6411 74.8106 17.5213 76.3523 15.7344C77.8939 13.9299 79.8823 12.5459 82.3175 11.5824C84.7701 10.6013 87.6082 10.1108 90.8317 10.1108C93.0741 10.1108 95.2202 10.3736 97.2699 10.8991C99.3371 11.4247 101.168 12.2393 102.762 13.343C104.374 14.4467 105.644 15.8658 106.572 17.6001C107.501 19.317 107.965 21.3755 107.965 23.7756V51H97.3487V45.4027H97.0334C96.3852 46.6641 95.518 47.7765 94.4318 48.7401C93.3457 49.6861 92.0405 50.4306 90.5163 50.9737C88.9922 51.4993 87.2315 51.7621 85.2344 51.7621ZM88.4404 44.0362C90.0871 44.0362 91.5412 43.7121 92.8026 43.0639C94.0639 42.3982 95.0537 41.5047 95.772 40.3835C96.4903 39.2623 96.8494 37.9922 96.8494 36.5732V32.2898C96.4991 32.5175 96.0173 32.7277 95.4041 32.9205C94.8085 33.0956 94.134 33.2621 93.3807 33.4197C92.6274 33.5599 91.8741 33.6913 91.1207 33.8139C90.3674 33.919 89.6842 34.0154 89.071 34.103C87.7571 34.2957 86.6096 34.6023 85.6286 35.0227C84.6475 35.4432 83.8854 36.0125 83.3423 36.7308C82.7993 37.4316 82.5277 38.3075 82.5277 39.3587C82.5277 40.8828 83.0796 42.0478 84.1832 42.8537C85.3045 43.642 86.7235 44.0362 88.4404 44.0362ZM129.98 10.6364V19.0455H105.672V10.6364H129.98ZM111.191 0.965908H122.385V38.5966C122.385 39.6302 122.543 40.4361 122.858 41.0142C123.174 41.5748 123.612 41.969 124.172 42.1967C124.75 42.4245 125.416 42.5384 126.169 42.5384C126.695 42.5384 127.22 42.4946 127.746 42.407C128.272 42.3018 128.675 42.223 128.955 42.1705L130.715 50.5007C130.155 50.6759 129.367 50.8774 128.35 51.1051C127.334 51.3504 126.099 51.4993 124.645 51.5518C121.947 51.657 119.582 51.2978 117.55 50.4744C115.535 49.651 113.967 48.3722 112.846 46.6378C111.725 44.9034 111.173 42.7135 111.191 40.0682V0.965908ZM150.601 10.6364V19.0455H126.294V10.6364H150.601ZM131.812 0.965908H143.007V38.5966C143.007 39.6302 143.165 40.4361 143.48 41.0142C143.795 41.5748 144.233 41.969 144.794 42.1967C145.372 42.4245 146.038 42.5384 146.791 42.5384C147.317 42.5384 147.842 42.4946 148.368 42.407C148.893 42.3018 149.296 42.223 149.577 42.1705L151.337 50.5007C150.777 50.6759 149.988 50.8774 148.972 51.1051C147.956 51.3504 146.721 51.4993 145.267 51.5518C142.569 51.657 140.204 51.2978 138.172 50.4744C136.157 49.651 134.589 48.3722 133.468 46.6378C132.347 44.9034 131.795 42.7135 131.812 40.0682V0.965908ZM167.557 51.7884C163.475 51.7884 159.945 50.9212 156.967 49.1868C154.006 47.4349 151.72 44.9998 150.108 41.8814C148.497 38.7455 147.691 35.1103 147.691 30.9759C147.691 26.8063 148.497 23.1624 150.108 20.044C151.72 16.9081 154.006 14.473 156.967 12.7386C159.945 10.9867 163.475 10.1108 167.557 10.1108C171.639 10.1108 175.161 10.9867 178.121 12.7386C181.099 14.473 183.394 16.9081 185.006 20.044C186.618 23.1624 187.424 26.8063 187.424 30.9759C187.424 35.1103 186.618 38.7455 185.006 41.8814C183.394 44.9998 181.099 47.4349 178.121 49.1868C175.161 50.9212 171.639 51.7884 167.557 51.7884ZM167.61 43.1165C169.467 43.1165 171.017 42.5909 172.261 41.5398C173.505 40.4711 174.442 39.017 175.073 37.1776C175.721 35.3381 176.045 33.2446 176.045 30.897C176.045 28.5495 175.721 26.456 175.073 24.6165C174.442 22.777 173.505 21.3229 172.261 20.2543C171.017 19.1856 169.467 18.6513 167.61 18.6513C165.735 18.6513 164.159 19.1856 162.88 20.2543C161.618 21.3229 160.664 22.777 160.015 24.6165C159.385 26.456 159.069 28.5495 159.069 30.897C159.069 33.2446 159.385 35.3381 160.015 37.1776C160.664 39.017 161.618 40.4711 162.88 41.5398C164.159 42.5909 165.735 43.1165 167.61 43.1165Z" fill="#010101"/>
</svg>
