<svg width="188" height="52" viewBox="0 0 188 52" fill="none" xmlns="http://www.w3.org/2000/svg">
<g clip-path="url(#clip0_1098_3)">
<path d="M7.00994 51.6832C5.27557 51.6832 3.78646 51.0701 2.54261 49.8438C1.31629 48.5999 0.703125 47.1108 0.703125 45.3764C0.703125 43.6596 1.31629 42.188 2.54261 40.9616C3.78646 39.7353 5.27557 39.1222 7.00994 39.1222C8.69176 39.1222 10.1634 39.7353 11.4247 40.9616C12.6861 42.188 13.3168 43.6596 13.3168 45.3764C13.3168 46.5327 13.019 47.5926 12.4233 48.5561C11.8452 49.5021 11.0831 50.2642 10.1371 50.8423C9.19105 51.4029 8.14867 51.6832 7.00994 51.6832ZM14.3676 51V10.6364H25.0367V17.7578H25.5097C26.3506 15.3928 27.7521 13.527 29.7142 12.1605C31.6764 10.794 34.0239 10.1108 36.7569 10.1108C39.5248 10.1108 41.8811 10.8028 43.8257 12.1868C45.7703 13.5533 47.0667 15.4103 47.7149 17.7578H48.1354C48.9588 15.4453 50.4479 13.5971 52.6027 12.2131C54.7751 10.8116 57.3416 10.1108 60.3023 10.1108C64.0689 10.1108 67.1259 11.3108 69.4735 13.7109C71.8385 16.0935 73.0211 19.4747 73.0211 23.8544V51H61.8527V26.0618C61.8527 23.8194 61.2571 22.1375 60.0658 21.0163C58.8745 19.8951 57.3854 19.3345 55.5985 19.3345C53.5663 19.3345 51.9808 19.9827 50.8421 21.2791C49.7033 22.558 49.134 24.2486 49.134 26.3509V51H38.281V25.8253C38.281 23.8456 37.7116 22.2689 36.5729 21.0952C35.4517 19.9214 33.9713 19.3345 32.1319 19.3345C30.888 19.3345 29.7668 19.6499 28.7682 20.2805C27.7872 20.8937 27.0076 21.7609 26.4294 22.8821C25.8513 23.9858 25.5622 25.2822 25.5622 26.7713V51H14.3676ZM85.2337 51.7621C82.6584 51.7621 80.3634 51.3153 78.3487 50.4219C76.3341 49.5109 74.7398 48.1707 73.5661 46.4013C72.4098 44.6143 71.8317 42.3894 71.8317 39.7266C71.8317 37.4841 72.2434 35.6009 73.0668 34.0767C73.8902 32.5526 75.0114 31.3262 76.4304 30.3977C77.8495 29.4692 79.4612 28.7685 81.2656 28.2955C83.0876 27.8224 84.9972 27.4896 86.9943 27.2969C89.3419 27.0516 91.2339 26.8239 92.6705 26.6136C94.107 26.3859 95.1494 26.053 95.7976 25.6151C96.4458 25.1771 96.7699 24.5289 96.7699 23.6705V23.5128C96.7699 21.8485 96.2443 20.5608 95.1932 19.6499C94.1596 18.7389 92.688 18.2834 90.7784 18.2834C88.7637 18.2834 87.1608 18.7301 85.9695 19.6236C84.7782 20.4995 83.9898 21.6032 83.6044 22.9347L73.2507 22.0938C73.7763 19.6411 74.8099 17.5213 76.3516 15.7344C77.8932 13.9299 79.8816 12.5459 82.3168 11.5824C84.7694 10.6013 87.6075 10.1108 90.831 10.1108C93.0734 10.1108 95.2195 10.3736 97.2692 10.8991C99.3364 11.4247 101.167 12.2393 102.761 13.343C104.373 14.4467 105.643 15.8658 106.571 17.6001C107.5 19.317 107.964 21.3755 107.964 23.7756V51H97.348V45.4027H97.0327C96.3845 46.6641 95.5173 47.7765 94.4311 48.7401C93.345 49.6861 92.0398 50.4306 90.5156 50.9737C88.9915 51.4993 87.2308 51.7621 85.2337 51.7621ZM88.4397 44.0362C90.0864 44.0362 91.5405 43.7121 92.8019 43.0639C94.0632 42.3982 95.053 41.5047 95.7713 40.3835C96.4896 39.2623 96.8487 37.9922 96.8487 36.5732V32.2898C96.4984 32.5175 96.0166 32.7277 95.4034 32.9205C94.8078 33.0956 94.1333 33.2621 93.38 33.4197C92.6267 33.5599 91.8734 33.6913 91.12 33.8139C90.3667 33.919 89.6835 34.0154 89.0703 34.103C87.7564 34.2957 86.6089 34.6023 85.6279 35.0227C84.6468 35.4432 83.8847 36.0125 83.3416 36.7308C82.7986 37.4316 82.527 38.3075 82.527 39.3587C82.527 40.8828 83.0789 42.0478 84.1825 42.8537C85.3038 43.642 86.7228 44.0362 88.4397 44.0362ZM129.979 10.6364V19.0455H105.671V10.6364H129.979ZM111.19 0.965942H122.384V38.5966C122.384 39.6302 122.542 40.4361 122.857 41.0142C123.173 41.5748 123.611 41.969 124.171 42.1967C124.749 42.4245 125.415 42.5384 126.168 42.5384C126.694 42.5384 127.219 42.4946 127.745 42.407C128.271 42.3018 128.674 42.223 128.954 42.1705L130.714 50.5007C130.154 50.6759 129.366 50.8774 128.349 51.1051C127.333 51.3504 126.098 51.4993 124.644 51.5518C121.946 51.657 119.581 51.2978 117.549 50.4744C115.534 49.651 113.966 48.3722 112.845 46.6378C111.724 44.9034 111.172 42.7135 111.19 40.0682V0.965942ZM150.6 10.6364V19.0455H126.293V10.6364H150.6ZM131.811 0.965942H143.006V38.5966C143.006 39.6302 143.164 40.4361 143.479 41.0142C143.794 41.5748 144.232 41.969 144.793 42.1967C145.371 42.4245 146.037 42.5384 146.79 42.5384C147.316 42.5384 147.841 42.4946 148.367 42.407C148.892 42.3018 149.295 42.223 149.576 42.1705L151.336 50.5007C150.776 50.6759 149.987 50.8774 148.971 51.1051C147.955 51.3504 146.72 51.4993 145.266 51.5518C142.568 51.657 140.203 51.2978 138.171 50.4744C136.156 49.651 134.588 48.3722 133.467 46.6378C132.346 44.9034 131.794 42.7135 131.811 40.0682V0.965942ZM167.556 51.7884C163.474 51.7884 159.944 50.9212 156.966 49.1868C154.005 47.4349 151.719 44.9998 150.107 41.8814C148.496 38.7455 147.69 35.1103 147.69 30.9759C147.69 26.8063 148.496 23.1624 150.107 20.044C151.719 16.9081 154.005 14.473 156.966 12.7386C159.944 10.9867 163.474 10.1108 167.556 10.1108C171.638 10.1108 175.16 10.9867 178.12 12.7386C181.098 14.473 183.393 16.9081 185.005 20.044C186.617 23.1624 187.423 26.8063 187.423 30.9759C187.423 35.1103 186.617 38.7455 185.005 41.8814C183.393 44.9998 181.098 47.4349 178.12 49.1868C175.16 50.9212 171.638 51.7884 167.556 51.7884ZM167.609 43.1165C169.466 43.1165 171.016 42.5909 172.26 41.5398C173.504 40.4711 174.441 39.017 175.072 37.1776C175.72 35.3381 176.044 33.2446 176.044 30.897C176.044 28.5495 175.72 26.456 175.072 24.6165C174.441 22.777 173.504 21.3229 172.26 20.2543C171.016 19.1856 169.466 18.6513 167.609 18.6513C165.734 18.6513 164.158 19.1856 162.879 20.2543C161.617 21.3229 160.663 22.777 160.014 24.6165C159.384 26.456 159.068 28.5495 159.068 30.897C159.068 33.2446 159.384 35.3381 160.014 37.1776C160.663 39.017 161.617 40.4711 162.879 41.5398C164.158 42.5909 165.734 43.1165 167.609 43.1165Z" fill="#FAFAFA"/>
</g>
<defs>
<clipPath id="clip0_1098_3">
<rect width="188" height="52" fill="white"/>
</clipPath>
</defs>
</svg>
