<svg width="32" height="36" viewBox="0 0 32 36" fill="none" xmlns="http://www.w3.org/2000/svg">
<path d="M32 7.92054V10.5774C31.9234 10.6748 31.8557 10.7815 31.7685 10.8682C30.8349 11.7916 29.8991 12.7128 28.9607 13.6313C28.889 13.7013 28.8 13.7783 28.7075 13.7986C27.7969 14.0009 26.9236 14.3878 25.9493 14.3741C27.7199 16.3895 29.4897 18.4041 31.274 20.4355C26.3632 25.3764 21.4607 30.309 16.5582 35.2416C16.5396 35.2296 16.521 35.2177 16.502 35.2057V25.592C16.4683 25.5805 16.4551 25.5721 16.4413 25.5721C15.0691 25.5708 13.6968 25.5637 12.3246 25.5792C12.1767 25.581 11.9944 25.6775 11.8886 25.7881C11.098 26.6137 10.3277 27.4583 9.53671 28.2834C9.43756 28.3865 9.25783 28.4653 9.1153 28.4658C7.44071 28.4684 5.76612 28.4534 4.09198 28.4454C3.91181 28.4445 3.76972 28.3883 3.64312 28.2529C3.29563 27.881 2.93663 27.5203 2.58383 27.1533C2.36693 26.9275 2.15356 26.6991 1.92294 26.4552C1.97561 26.441 1.99465 26.4313 2.01368 26.4313C4.44035 26.4225 6.86702 26.4132 9.29413 26.4074C9.51281 26.407 9.68899 26.3552 9.83374 26.1723C10.1219 25.808 10.4145 25.4455 10.7301 25.1051C12.287 23.4278 13.7712 21.6904 15.1364 19.8529C15.1904 19.7803 15.2395 19.7046 15.2909 19.6303C15.2085 19.6267 15.1603 19.6528 15.1222 19.6896C14.2117 20.5722 13.2728 21.4283 12.3998 22.3473C11.3591 23.4429 10.3764 24.5929 9.36407 25.7155C9.30254 25.7837 9.20162 25.851 9.1153 25.8558C8.28398 25.905 7.45178 25.9391 6.62002 25.9802C4.85336 26.0674 3.08625 26.1569 1.31959 26.2441C0.895521 26.2649 0.471452 26.2821 0.0438409 26.3016C0.0367583 26.2445 0.0301184 26.2162 0.0301184 26.1878C0.0292331 24.7341 0.0265771 23.2804 0.0349877 21.8267C0.0354304 21.7311 0.0987309 21.6182 0.166015 21.5439C2.22085 19.2859 4.28011 17.0323 6.33848 14.7774C6.56911 14.525 6.79752 14.271 7.02726 14.0173C6.66915 14.0952 6.33937 14.2218 5.99896 14.3059C5.80596 14.3537 5.58596 14.3763 5.39517 14.3334C4.71967 14.1824 4.05037 14.0036 3.38239 13.8217C3.25402 13.7867 3.12299 13.7079 3.02694 13.6149C2.09646 12.7097 1.17484 11.7952 0.246137 10.8877C0.0814671 10.7266 0.009756 10.5468 0.0106413 10.3171C0.0141826 9.58672 0.00577205 8.85632 1.74532e-05 8.12593C-0.00131053 7.95064 0.0730565 7.86122 0.25322 7.82846C1.5148 7.60138 2.77418 7.36146 4.03665 7.13968C4.21858 7.10781 4.42043 7.12109 4.60104 7.16447C5.15923 7.29816 5.70991 7.46371 6.26677 7.60404C7.02284 7.79482 7.78112 7.9772 8.54072 8.15294C8.62129 8.17153 8.747 8.15072 8.80234 8.09716C9.09139 7.81607 9.36452 7.5186 9.6518 7.21759C9.25119 6.7705 8.85103 6.30748 8.43094 5.86349C8.26539 5.68864 8.24326 5.52972 8.31541 5.30751C8.78286 3.87196 9.23836 2.43242 9.69873 0.99466C9.80054 0.676386 9.90633 0.359441 10.0104 0.0420528C10.0998 0.156702 10.1392 0.271351 10.1733 0.387771C10.488 1.46964 10.8032 2.5515 11.1148 3.63425C11.1657 3.81043 11.2609 3.91357 11.441 3.98307C12.2223 4.28585 13.0311 4.31285 13.8558 4.30444C15.7371 4.28585 17.6184 4.2916 19.4997 4.30267C20.08 4.30621 20.6426 4.23361 21.2013 4.08178C21.6134 3.96979 21.848 3.72721 21.9618 3.31332C22.253 2.25536 22.5691 1.20404 22.8763 0.150505C22.8887 0.107567 22.9131 0.0681698 22.944 0C22.9834 0.101369 23.0135 0.168211 23.0361 0.237709C23.5886 1.95523 24.1388 3.6732 24.6943 5.3894C24.7461 5.54964 24.7173 5.67049 24.6084 5.79311C24.349 6.08526 24.0963 6.38362 23.8422 6.68064C23.6381 6.91924 23.4354 7.1596 23.2172 7.41768C23.5115 7.59828 23.7758 7.77313 24.0538 7.92364C24.1441 7.97277 24.2782 7.99225 24.3774 7.96613C25.3681 7.70762 26.353 7.42786 27.345 7.17687C27.565 7.12109 27.8142 7.11711 28.0386 7.15473C29.0483 7.32427 30.0545 7.51418 31.0607 7.70452C31.3763 7.76428 31.687 7.84838 32 7.92142V7.92054Z" fill="#010101"/>
</svg>
